<?xml version="1.0" standalone="no"?>
<!DOCTYPE svg PUBLIC "-//W3C//DTD SVG 20010904//EN"
 "http://www.w3.org/TR/2001/REC-SVG-20010904/DTD/svg10.dtd">
<svg version="1.0" xmlns="http://www.w3.org/2000/svg"
 width="794.000000pt" height="794.000000pt" viewBox="0 0 794.000000 794.000000"
 preserveAspectRatio="xMidYMid meet">
<metadata>
Created by potrace 1.11, written by Peter Selinger 2001-2013
</metadata>
<g transform="translate(0.000000,794.000000) scale(0.100000,-0.100000)"
fill="#000000" stroke="none">
<path d="M3615 7899 c-342 -33 -695 -115 -1035 -240 -160 -60 -490 -220 -648
-316 -533 -323 -1010 -800 -1336 -1335 -94 -155 -254 -485 -315 -648 -129
-349 -208 -694 -241 -1055 -13 -142 -13 -548 0 -690 46 -496 172 -948 390
-1390 184 -373 360 -632 641 -942 170 -186 521 -496 539 -476 8 8 160 671 160
695 0 8 -22 29 -50 47 -384 249 -503 1228 -290 2372 70 371 337 1348 470 1719
87 241 111 280 170 280 29 0 1529 -363 1567 -380 41 -17 56 -64 48 -149 -24
-270 -103 -758 -206 -1275 -89 -447 -150 -691 -254 -1001 -207 -623 -462
-1094 -749 -1381 -157 -158 -297 -237 -446 -253 l-55 -6 -87 -375 c-47 -206
-89 -389 -92 -406 -6 -30 -5 -31 146 -122 522 -311 1090 -496 1693 -552 142
-13 548 -13 690 0 508 47 963 176 1420 405 185 93 220 113 217 130 -1 11 -63
333 -136 715 l-133 695 -39 -2 c-263 -14 -405 0 -572 58 -618 216 -993 960
-1108 2199 -21 228 -30 879 -15 1099 12 175 20 201 66 201 12 0 262 45 556
100 294 55 762 143 1040 195 279 52 517 95 531 95 56 0 78 -37 214 -358 259
-613 442 -1273 495 -1787 18 -175 15 -505 -5 -640 -42 -273 -115 -471 -235
-641 -152 -217 -348 -357 -619 -444 -115 -37 -117 -38 -114 -66 5 -50 242
-1288 250 -1307 7 -16 23 -8 131 69 945 674 1544 1719 1651 2879 13 142 13
548 0 690 -33 361 -112 705 -241 1055 -60 160 -220 490 -316 648 -323 533
-802 1012 -1335 1335 -158 96 -488 256 -648 316 -350 129 -694 208 -1055 241
-129 12 -581 11 -710 -1z m173 -1186 c13 -8 27 -24 31 -36 4 -12 11 -152 15
-310 l6 -288 -29 -30 c-32 -32 -71 -38 -116 -17 -50 23 -54 44 -61 349 l-7
284 27 32 c37 45 81 50 134 16z m867 -117 c30 -30 41 -72 28 -106 -18 -49
-304 -500 -323 -510 -28 -15 -73 -12 -98 6 -31 22 -55 72 -49 103 7 33 290
489 318 514 32 26 94 22 124 -7z m-1707 -3 c11 -10 84 -126 163 -258 158 -264
167 -289 120 -339 -19 -20 -34 -26 -68 -26 -25 0 -53 5 -63 10 -11 6 -85 119
-165 253 -124 208 -145 248 -145 284 0 34 6 46 31 67 37 31 96 35 127 9z"/>
<path d="M5850 5685 c-261 -51 -573 -110 -1219 -234 -302 -58 -466 -93 -472
-102 -10 -15 -12 -531 -3 -566 7 -26 28 -31 169 -39 242 -14 516 67 710 209
273 200 403 266 619 317 192 45 392 47 569 6 58 -14 59 -14 53 8 -11 42 -184
440 -192 442 -5 1 -110 -17 -234 -41z"/>
<path d="M2072 5497 c-109 -325 -352 -1168 -352 -1220 0 -26 102 -96 181 -124
154 -53 267 -41 468 51 218 100 326 120 488 92 153 -26 272 -81 372 -171 34
-31 40 -34 45 -18 9 30 93 505 131 733 41 253 77 531 70 538 -2 3 -294 76
-647 163 -354 87 -653 161 -664 163 -20 5 -27 -10 -92 -207z"/>
<path d="M5865 5089 c-160 -13 -333 -60 -450 -122 -32 -18 -127 -80 -210 -139
-82 -59 -188 -127 -235 -152 -206 -108 -499 -168 -714 -146 -55 6 -102 8 -104
5 -3 -3 0 -86 6 -184 68 -1009 322 -1707 731 -2010 80 -60 229 -132 321 -156
99 -26 317 -31 473 -11 163 22 275 54 402 115 215 105 353 247 460 474 95 201
130 390 129 707 0 319 -40 589 -144 995 -55 213 -155 533 -174 553 -17 17
-197 61 -281 67 -38 3 -81 7 -95 9 -14 1 -65 -1 -115 -5z"/>
<path d="M2640 4104 c-30 -8 -100 -35 -155 -60 -137 -63 -221 -90 -310 -104
-138 -21 -350 21 -460 91 -26 16 -48 29 -50 27 -13 -15 -85 -443 -111 -660
-21 -179 -30 -676 -15 -847 39 -445 165 -758 336 -837 106 -50 217 -24 367 87
290 216 596 749 812 1417 55 169 132 457 155 577 10 56 10 61 -15 96 -38 56
-134 143 -183 168 -107 55 -263 74 -371 45z"/>
</g>
</svg>
